<svg xmlns="http://www.w3.org/2000/svg" viewBox="0 0 48 48" role="img" aria-hidden="true">
  <circle cx="24" cy="24" r="22" fill="#25d366"/>
  <path fill="#ffffff" d="M24.1 11.2c-7 0-12.7 5.6-12.7 12.6 0 2.3.6 4.5 1.8 6.4l-1.9 6.9 7.1-1.9c1.8 1 3.8 1.5 5.8 1.5 7 0 12.7-5.6 12.7-12.6s-5.8-12.9-12.8-12.9zm0 23.3c-1.8 0-3.5-.5-5-1.4l-.4-.2-4.2 1.1 1.1-4.1-.3-.4c-1-1.6-1.6-3.5-1.6-5.5 0-5.7 4.6-10.3 10.4-10.3 5.7 0 10.4 4.7 10.4 10.4s-4.7 10.4-10.4 10.4z"/>
  <path fill="#ffffff" d="M29.8 26.7c-.3-.2-1.9-.9-2.2-1-.3-.1-.5-.2-.7.2s-.8 1-1 1.2c-.2.2-.4.2-.7.1-.3-.2-1.3-.5-2.5-1.5-.9-.8-1.6-1.8-1.8-2.1-.2-.3 0-.5.1-.7l.5-.6c.2-.2.2-.3.3-.5.1-.2.1-.4 0-.6-.1-.2-.7-1.7-1-2.3-.3-.6-.5-.5-.7-.5h-.6c-.2 0-.6.1-.9.4-.3.3-1.2 1.2-1.2 2.9 0 1.7 1.2 3.3 1.4 3.6.2.2 2.4 3.7 5.8 5.1.8.4 1.5.6 2 .7.8.3 1.6.2 2.2.1.7-.1 1.9-.8 2.2-1.5.3-.7.3-1.4.2-1.5-.1-.2-.3-.3-.6-.5z"/>
</svg>
